<?xml version="1.0" encoding="utf-8"?><svg xml:space="preserve" viewBox="0 0 100 100" y="0" x="0" xmlns="http://www.w3.org/2000/svg" id="圖層_1" version="1.1" width="200px" height="200px" xmlns:xlink="http://www.w3.org/1999/xlink" style="width:100%;height:100%;background-size:initial;background-repeat-y:initial;background-repeat-x:initial;background-position-y:initial;background-position-x:initial;background-origin:initial;background-color:initial;background-clip:initial;background-attachment:initial;animation-play-state:paused" ><g class="ldl-scale" style="transform-origin:50% 50%;transform:rotate(0deg) scale(0.8, 0.8);animation-play-state:paused" ><path fill="#333" d="M86.034 88.907H15.238a3.43 3.43 0 0 1-3.43-3.43V31.829a3.43 3.43 0 0 1 3.43-3.43h70.796a3.43 3.43 0 0 1 3.43 3.43v53.648a3.43 3.43 0 0 1-3.43 3.43z" style="fill:rgb(147, 219, 233);animation-play-state:paused" ></path>
<path fill="#666" d="M43.654 23.5H16.708v60.507h26.947c3.824.012 6.125-1.108 6.982 1.47V27.42c-1.454-2.865-3.84-4.067-6.983-3.92z" style="fill:rgb(179, 183, 226);animation-play-state:paused" ></path>
<path fill="#666" d="M57.617 23.5h26.947v60.507H57.617c-3.824.012-6.125-1.108-6.982 1.47V27.42c1.454-2.865 3.84-4.067 6.982-3.92z" style="fill:rgb(179, 183, 226);animation-play-state:paused" ></path>
<path fill="#b3b3b3" d="M43.654 21.541H16.708v60.507h26.947c3.824.012 6.125.851 6.982 3.43V25.46c-1.454-2.865-3.84-4.067-6.983-3.919z" style="fill:rgb(59, 67, 104);animation-play-state:paused" ></path>
<path fill="#b3b3b3" d="M57.617 21.541h26.947v60.507H57.617c-3.824.012-6.125.851-6.982 3.43V25.46c1.454-2.865 3.84-4.067 6.982-3.919z" style="fill:rgb(59, 67, 104);animation-play-state:paused" ></path>
<path d="M30.528 73.556h-4.573V92.5l4.573-3.92 4.573 3.92V73.556z" fill="#c33737" style="fill:rgb(217, 219, 238);animation-play-state:paused" ></path>
<path fill="#e0e0e0" d="M43.654 19.581H16.708v60.507h26.947c3.824.012 6.125 1.831 6.982 4.409V23.5c-1.454-2.865-3.84-4.066-6.983-3.919z" style="fill:rgb(104, 156, 197);animation-play-state:paused" ></path>
<path fill="#e0e0e0" d="M57.617 19.581h26.947v60.507H57.617c-3.824.012-6.125 1.831-6.982 4.409V23.5c1.454-2.865 3.84-4.066 6.982-3.919z" style="fill:rgb(104, 156, 197);animation-play-state:paused" ></path>
<g style="animation-play-state:paused" ><path d="M14.973 28.76H63.55v14.93H14.973z" fill="#eba523" transform="rotate(-134.999 39.262 36.225)" style="fill:rgb(25, 29, 58);animation-play-state:paused" ></path>
<path fill="#f2f2f2" d="M27.366 13.772L22.014 8.42a3.14 3.14 0 0 0-4.442 0l-6.115 6.115a3.14 3.14 0 0 0 0 4.442l5.352 5.352 10.557-10.557z" style="fill:rgb(147, 219, 233);animation-play-state:paused" ></path>
<path d="M58.311 60.153l4.879-4.878-1.475-7.154-5.279 5.279-5.278 5.278z" fill="#f5e6c8" style="fill:rgb(94, 111, 163);animation-play-state:paused" ></path>
<path d="M64.457 61.42l-1.267-6.145-4.879 4.878z" fill="#333" style="fill:rgb(147, 219, 233);animation-play-state:paused" ></path>
<path d="M52.477 49.441L26.249 23.212" stroke-width="1.941" stroke="#333" fill="none" style="stroke:rgb(147, 219, 233);animation-play-state:paused" ></path></g>
<metadata xmlns:d="https://loading.io/stock/" style="animation-play-state:paused" ><d:name style="animation-play-state:paused" >edit</d:name>
<d:tags style="animation-play-state:paused" >compose,write,design,draft,idea,create,author,editor,editorial,book,pen,draw,edit,books</d:tags>
<d:license style="animation-play-state:paused" >pro</d:license>
<d:slug style="animation-play-state:paused" >w7bsjs</d:slug></metadata></g><!-- generated by https://loading.io/ --></svg>